<mxfile host="Electron" agent="Mozilla/5.0 (X11; Linux x86_64) AppleWebKit/537.36 (KHTML, like Gecko) draw.io/27.0.9 Chrome/134.0.6998.205 Electron/35.4.0 Safari/537.36" version="27.0.9">
  <diagram name="Page-1" id="AjDQ_daHOgjR2wSU4p0o">
    <mxGraphModel dx="401" dy="307" grid="1" gridSize="10" guides="1" tooltips="1" connect="1" arrows="1" fold="1" page="1" pageScale="1" pageWidth="850" pageHeight="1100" math="0" shadow="0">
      <root>
        <mxCell id="0" />
        <mxCell id="1" parent="0" />
        <mxCell id="etu7nYkIQvL4e2oJp70M-2" value="" style="endArrow=none;html=1;rounded=0;" parent="1" edge="1">
          <mxGeometry width="50" height="50" relative="1" as="geometry">
            <mxPoint x="40" y="600" as="sourcePoint" />
            <mxPoint x="40" y="40" as="targetPoint" />
          </mxGeometry>
        </mxCell>
        <mxCell id="etu7nYkIQvL4e2oJp70M-3" value="" style="endArrow=none;html=1;rounded=0;" parent="1" edge="1">
          <mxGeometry width="50" height="50" relative="1" as="geometry">
            <mxPoint x="360" y="600" as="sourcePoint" />
            <mxPoint x="360" y="40" as="targetPoint" />
          </mxGeometry>
        </mxCell>
        <mxCell id="etu7nYkIQvL4e2oJp70M-5" value="" style="endArrow=classic;html=1;rounded=0;" parent="1" edge="1">
          <mxGeometry width="50" height="50" relative="1" as="geometry">
            <mxPoint x="40" y="50" as="sourcePoint" />
            <mxPoint x="360" y="50" as="targetPoint" />
          </mxGeometry>
        </mxCell>
        <mxCell id="etu7nYkIQvL4e2oJp70M-7" value="" style="endArrow=classic;html=1;rounded=0;" parent="1" edge="1">
          <mxGeometry width="50" height="50" relative="1" as="geometry">
            <mxPoint x="360" y="100" as="sourcePoint" />
            <mxPoint x="40" y="100" as="targetPoint" />
          </mxGeometry>
        </mxCell>
        <mxCell id="etu7nYkIQvL4e2oJp70M-8" value="" style="endArrow=classic;html=1;rounded=0;" parent="1" edge="1">
          <mxGeometry width="50" height="50" relative="1" as="geometry">
            <mxPoint x="40" y="160" as="sourcePoint" />
            <mxPoint x="360" y="160" as="targetPoint" />
          </mxGeometry>
        </mxCell>
        <mxCell id="etu7nYkIQvL4e2oJp70M-9" value="Connect" style="text;html=1;align=center;verticalAlign=middle;whiteSpace=wrap;rounded=0;" parent="1" vertex="1">
          <mxGeometry x="170" y="20" width="60" height="30" as="geometry" />
        </mxCell>
        <mxCell id="etu7nYkIQvL4e2oJp70M-10" value="Ok" style="text;html=1;align=center;verticalAlign=middle;whiteSpace=wrap;rounded=0;" parent="1" vertex="1">
          <mxGeometry x="170" y="70" width="60" height="30" as="geometry" />
        </mxCell>
        <mxCell id="etu7nYkIQvL4e2oJp70M-11" value="Subscribe to: [list of topics]" style="text;html=1;align=center;verticalAlign=middle;whiteSpace=wrap;rounded=0;" parent="1" vertex="1">
          <mxGeometry x="125" y="130" width="150" height="30" as="geometry" />
        </mxCell>
        <mxCell id="etu7nYkIQvL4e2oJp70M-12" value="" style="endArrow=classic;html=1;rounded=0;" parent="1" edge="1">
          <mxGeometry width="50" height="50" relative="1" as="geometry">
            <mxPoint x="360" y="200" as="sourcePoint" />
            <mxPoint x="40" y="200" as="targetPoint" />
          </mxGeometry>
        </mxCell>
        <mxCell id="etu7nYkIQvL4e2oJp70M-13" value="Ok" style="text;html=1;align=center;verticalAlign=middle;whiteSpace=wrap;rounded=0;" parent="1" vertex="1">
          <mxGeometry x="170" y="170" width="60" height="30" as="geometry" />
        </mxCell>
        <mxCell id="etu7nYkIQvL4e2oJp70M-14" value="" style="endArrow=classic;html=1;rounded=0;" parent="1" edge="1">
          <mxGeometry width="50" height="50" relative="1" as="geometry">
            <mxPoint x="360" y="360" as="sourcePoint" />
            <mxPoint x="40" y="400" as="targetPoint" />
          </mxGeometry>
        </mxCell>
        <mxCell id="etu7nYkIQvL4e2oJp70M-15" value="" style="endArrow=classic;html=1;rounded=0;" parent="1" edge="1">
          <mxGeometry width="50" height="50" relative="1" as="geometry">
            <mxPoint x="360" y="400" as="sourcePoint" />
            <mxPoint x="40" y="440" as="targetPoint" />
          </mxGeometry>
        </mxCell>
        <mxCell id="etu7nYkIQvL4e2oJp70M-16" value="" style="endArrow=classic;html=1;rounded=0;" parent="1" edge="1">
          <mxGeometry width="50" height="50" relative="1" as="geometry">
            <mxPoint x="360" y="440" as="sourcePoint" />
            <mxPoint x="40" y="480" as="targetPoint" />
          </mxGeometry>
        </mxCell>
        <mxCell id="etu7nYkIQvL4e2oJp70M-19" value="" style="endArrow=classic;html=1;rounded=0;" parent="1" edge="1">
          <mxGeometry width="50" height="50" relative="1" as="geometry">
            <mxPoint x="40" y="230" as="sourcePoint" />
            <mxPoint x="360" y="320" as="targetPoint" />
          </mxGeometry>
        </mxCell>
        <mxCell id="etu7nYkIQvL4e2oJp70M-20" value="" style="endArrow=classic;html=1;rounded=0;" parent="1" edge="1">
          <mxGeometry width="50" height="50" relative="1" as="geometry">
            <mxPoint x="40" y="310" as="sourcePoint" />
            <mxPoint x="360" y="400" as="targetPoint" />
          </mxGeometry>
        </mxCell>
        <mxCell id="etu7nYkIQvL4e2oJp70M-21" value="" style="endArrow=classic;html=1;rounded=0;" parent="1" edge="1">
          <mxGeometry width="50" height="50" relative="1" as="geometry">
            <mxPoint x="40" y="270" as="sourcePoint" />
            <mxPoint x="360" y="360" as="targetPoint" />
          </mxGeometry>
        </mxCell>
        <mxCell id="etu7nYkIQvL4e2oJp70M-22" value="Post message to queue" style="text;html=1;align=center;verticalAlign=middle;whiteSpace=wrap;rounded=0;rotation=15;" parent="1" vertex="1">
          <mxGeometry x="170" y="260.35" width="140" height="30" as="geometry" />
        </mxCell>
        <mxCell id="etu7nYkIQvL4e2oJp70M-23" value="Post message to queue" style="text;html=1;align=center;verticalAlign=middle;whiteSpace=wrap;rounded=0;rotation=15;" parent="1" vertex="1">
          <mxGeometry x="129.99709351677257" y="290.3462205515125" width="140" height="30" as="geometry" />
        </mxCell>
        <mxCell id="etu7nYkIQvL4e2oJp70M-24" value="Post message&amp;nbsp;to queue" style="text;html=1;align=center;verticalAlign=middle;whiteSpace=wrap;rounded=0;rotation=15;" parent="1" vertex="1">
          <mxGeometry x="104.99709351677257" y="320.3462205515125" width="140" height="30" as="geometry" />
        </mxCell>
        <mxCell id="etu7nYkIQvL4e2oJp70M-25" value="Notify subscribers" style="text;html=1;align=center;verticalAlign=middle;whiteSpace=wrap;rounded=0;rotation=-5;" parent="1" vertex="1">
          <mxGeometry x="129.99709351677257" y="429.99622055151247" width="140" height="30" as="geometry" />
        </mxCell>
        <mxCell id="etu7nYkIQvL4e2oJp70M-30" value="Notify subscribers" style="text;html=1;align=center;verticalAlign=middle;whiteSpace=wrap;rounded=0;rotation=-5;" parent="1" vertex="1">
          <mxGeometry x="120.00096500763705" y="390.00382246371225" width="140" height="30" as="geometry" />
        </mxCell>
        <mxCell id="etu7nYkIQvL4e2oJp70M-31" value="Notify subscribers" style="text;html=1;align=center;verticalAlign=middle;whiteSpace=wrap;rounded=0;rotation=-10;" parent="1" vertex="1">
          <mxGeometry x="60.00096500763706" y="360.00382246371225" width="140" height="30" as="geometry" />
        </mxCell>
        <mxCell id="etu7nYkIQvL4e2oJp70M-32" value="" style="endArrow=classic;html=1;rounded=0;" parent="1" edge="1">
          <mxGeometry width="50" height="50" relative="1" as="geometry">
            <mxPoint x="40" y="520" as="sourcePoint" />
            <mxPoint x="360" y="520" as="targetPoint" />
          </mxGeometry>
        </mxCell>
        <mxCell id="etu7nYkIQvL4e2oJp70M-33" value="Disconnect" style="text;html=1;align=center;verticalAlign=middle;whiteSpace=wrap;rounded=0;rotation=0;" parent="1" vertex="1">
          <mxGeometry x="130.00096500763706" y="490.00382246371225" width="140" height="30" as="geometry" />
        </mxCell>
        <mxCell id="etu7nYkIQvL4e2oJp70M-34" value="" style="endArrow=classic;html=1;rounded=0;" parent="1" edge="1">
          <mxGeometry width="50" height="50" relative="1" as="geometry">
            <mxPoint x="360" y="560" as="sourcePoint" />
            <mxPoint x="40" y="560" as="targetPoint" />
          </mxGeometry>
        </mxCell>
        <mxCell id="etu7nYkIQvL4e2oJp70M-35" value="Ok" style="text;html=1;align=center;verticalAlign=middle;whiteSpace=wrap;rounded=0;rotation=0;" parent="1" vertex="1">
          <mxGeometry x="130" y="535" width="140" height="30" as="geometry" />
        </mxCell>
        <mxCell id="etu7nYkIQvL4e2oJp70M-39" style="edgeStyle=orthogonalEdgeStyle;rounded=0;orthogonalLoop=1;jettySize=auto;html=1;exitX=0.5;exitY=1;exitDx=0;exitDy=0;entryX=0.5;entryY=0;entryDx=0;entryDy=0;" parent="1" source="etu7nYkIQvL4e2oJp70M-37" target="etu7nYkIQvL4e2oJp70M-38" edge="1">
          <mxGeometry relative="1" as="geometry" />
        </mxCell>
        <mxCell id="etu7nYkIQvL4e2oJp70M-37" value="Yaq" style="rounded=0;whiteSpace=wrap;html=1;" parent="1" vertex="1">
          <mxGeometry x="560" y="200" width="120" height="60" as="geometry" />
        </mxCell>
        <mxCell id="etu7nYkIQvL4e2oJp70M-42" style="edgeStyle=orthogonalEdgeStyle;rounded=0;orthogonalLoop=1;jettySize=auto;html=1;exitX=0.5;exitY=1;exitDx=0;exitDy=0;entryX=0.5;entryY=0;entryDx=0;entryDy=0;" parent="1" source="etu7nYkIQvL4e2oJp70M-38" target="etu7nYkIQvL4e2oJp70M-41" edge="1">
          <mxGeometry relative="1" as="geometry" />
        </mxCell>
        <mxCell id="etu7nYkIQvL4e2oJp70M-38" value="Topic" style="rounded=0;whiteSpace=wrap;html=1;" parent="1" vertex="1">
          <mxGeometry x="560" y="320.35" width="120" height="60" as="geometry" />
        </mxCell>
        <mxCell id="etu7nYkIQvL4e2oJp70M-41" value="Subscriber" style="rounded=0;whiteSpace=wrap;html=1;" parent="1" vertex="1">
          <mxGeometry x="560" y="440" width="120" height="60" as="geometry" />
        </mxCell>
        <mxCell id="ByUlN52BuLxKuLAlwX2w-1" value="" style="endArrow=none;html=1;rounded=0;" edge="1" parent="1">
          <mxGeometry width="50" height="50" relative="1" as="geometry">
            <mxPoint x="40" y="640" as="sourcePoint" />
            <mxPoint x="800" y="640" as="targetPoint" />
          </mxGeometry>
        </mxCell>
        <mxCell id="ByUlN52BuLxKuLAlwX2w-2" value="API" style="text;html=1;align=center;verticalAlign=middle;whiteSpace=wrap;rounded=0;" vertex="1" parent="1">
          <mxGeometry x="395" y="650" width="60" height="30" as="geometry" />
        </mxCell>
        <mxCell id="ByUlN52BuLxKuLAlwX2w-22" value="subscribe: list[str]&lt;div&gt;unsubscribe: list[str]&lt;/div&gt;&lt;div&gt;topics: list[str]&lt;/div&gt;&lt;div&gt;post_message: topic[str], message[str]&lt;/div&gt;" style="text;html=1;align=center;verticalAlign=middle;whiteSpace=wrap;rounded=0;" vertex="1" parent="1">
          <mxGeometry x="215" y="680" width="180" height="110" as="geometry" />
        </mxCell>
      </root>
    </mxGraphModel>
  </diagram>
</mxfile>
